<svg xmlns="http://www.w3.org/2000/svg" xmlns:xlink="http://www.w3.org/1999/xlink" width="2000" zoomAndPan="magnify" viewBox="0 0 1500 599.999999" height="800" preserveAspectRatio="xMidYMid meet" version="1.0"><defs><g/><clipPath id="5ed17d25c8"><path d="M 17.703125 41.011719 L 502.203125 41.011719 L 502.203125 525.511719 L 17.703125 525.511719 Z M 17.703125 41.011719 " clip-rule="nonzero"/></clipPath><clipPath id="76362f594d"><rect x="0" width="639" y="0" height="293"/></clipPath><clipPath id="7625ee8ed6"><rect x="0" width="874" y="0" height="294"/></clipPath></defs><g clip-path="url(#5ed17d25c8)"><path fill="#6512d4" d="M 502.507812 283.414062 C 502.507812 287.382812 502.410156 291.347656 502.214844 295.308594 C 502.019531 299.269531 501.726562 303.226562 501.339844 307.175781 C 500.949219 311.121094 500.464844 315.058594 499.882812 318.984375 C 499.300781 322.90625 498.621094 326.8125 497.847656 330.703125 C 497.074219 334.597656 496.207031 338.464844 495.242188 342.3125 C 494.277344 346.160156 493.21875 349.984375 492.066406 353.78125 C 490.917969 357.578125 489.671875 361.34375 488.335938 365.078125 C 487 368.8125 485.574219 372.511719 484.054688 376.179688 C 482.535156 379.84375 480.929688 383.46875 479.234375 387.054688 C 477.535156 390.640625 475.753906 394.183594 473.882812 397.683594 C 472.011719 401.179688 470.058594 404.632812 468.019531 408.035156 C 465.980469 411.4375 463.859375 414.789062 461.652344 418.085938 C 459.449219 421.382812 457.167969 424.628906 454.804688 427.8125 C 452.441406 431 450 434.125 447.484375 437.191406 C 444.964844 440.257812 442.375 443.261719 439.710938 446.203125 C 437.046875 449.140625 434.3125 452.015625 431.507812 454.820312 C 428.703125 457.625 425.832031 460.359375 422.890625 463.023438 C 419.953125 465.6875 416.949219 468.277344 413.882812 470.792969 C 410.816406 473.3125 407.6875 475.75 404.503906 478.113281 C 401.316406 480.476562 398.074219 482.761719 394.773438 484.964844 C 391.476562 487.167969 388.125 489.289062 384.722656 491.328125 C 381.320312 493.371094 377.871094 495.324219 374.371094 497.195312 C 370.871094 499.066406 367.332031 500.847656 363.742188 502.542969 C 360.15625 504.238281 356.53125 505.847656 352.867188 507.363281 C 349.203125 508.882812 345.5 510.3125 341.765625 511.648438 C 338.03125 512.984375 334.265625 514.226562 330.46875 515.378906 C 326.671875 516.53125 322.851562 517.589844 319.003906 518.550781 C 315.15625 519.515625 311.285156 520.386719 307.394531 521.160156 C 303.503906 521.933594 299.59375 522.609375 295.671875 523.195312 C 291.746094 523.777344 287.8125 524.261719 283.863281 524.648438 C 279.914062 525.039062 275.960938 525.332031 271.996094 525.523438 C 268.035156 525.71875 264.070312 525.816406 260.105469 525.816406 C 256.136719 525.816406 252.171875 525.71875 248.210938 525.523438 C 244.246094 525.332031 240.292969 525.039062 236.34375 524.648438 C 232.394531 524.261719 228.460938 523.777344 224.535156 523.195312 C 220.613281 522.609375 216.703125 521.933594 212.8125 521.160156 C 208.921875 520.386719 205.054688 519.515625 201.203125 518.550781 C 197.355469 517.589844 193.535156 516.53125 189.738281 515.378906 C 185.941406 514.226562 182.175781 512.984375 178.441406 511.648438 C 174.707031 510.3125 171.003906 508.882812 167.339844 507.363281 C 163.675781 505.847656 160.050781 504.238281 156.464844 502.542969 C 152.878906 500.847656 149.335938 499.066406 145.835938 497.195312 C 142.335938 495.324219 138.886719 493.371094 135.484375 491.328125 C 132.082031 489.289062 128.730469 487.167969 125.433594 484.964844 C 122.132812 482.761719 118.890625 480.476562 115.703125 478.113281 C 112.519531 475.75 109.390625 473.3125 106.324219 470.792969 C 103.257812 468.277344 100.253906 465.6875 97.316406 463.023438 C 94.375 460.359375 91.503906 457.625 88.699219 454.820312 C 85.894531 452.015625 83.160156 449.140625 80.496094 446.203125 C 77.832031 443.261719 75.242188 440.257812 72.722656 437.191406 C 70.207031 434.125 67.765625 431 65.402344 427.8125 C 63.042969 424.628906 60.757812 421.382812 58.554688 418.085938 C 56.347656 414.789062 54.226562 411.4375 52.1875 408.035156 C 50.148438 404.632812 48.195312 401.179688 46.324219 397.683594 C 44.453125 394.183594 42.671875 390.640625 40.972656 387.054688 C 39.277344 383.46875 37.671875 379.84375 36.152344 376.179688 C 34.636719 372.511719 33.207031 368.8125 31.871094 365.078125 C 30.535156 361.34375 29.289062 357.578125 28.140625 353.78125 C 26.988281 349.984375 25.929688 346.160156 24.964844 342.3125 C 24 338.464844 23.132812 334.597656 22.359375 330.703125 C 21.585938 326.8125 20.90625 322.90625 20.324219 318.984375 C 19.742188 315.058594 19.257812 311.121094 18.867188 307.175781 C 18.480469 303.226562 18.1875 299.269531 17.992188 295.308594 C 17.796875 291.347656 17.703125 287.382812 17.703125 283.414062 C 17.703125 279.449219 17.796875 275.484375 17.992188 271.519531 C 18.1875 267.558594 18.480469 263.601562 18.867188 259.65625 C 19.257812 255.707031 19.742188 251.769531 20.324219 247.847656 C 20.90625 243.921875 21.585938 240.015625 22.359375 236.125 C 23.132812 232.234375 24 228.363281 24.964844 224.515625 C 25.929688 220.667969 26.988281 216.84375 28.140625 213.050781 C 29.289062 209.253906 30.535156 205.488281 31.871094 201.75 C 33.207031 198.015625 34.636719 194.316406 36.152344 190.652344 C 37.671875 186.984375 39.277344 183.359375 40.972656 179.773438 C 42.671875 176.1875 44.453125 172.644531 46.324219 169.148438 C 48.195312 165.648438 50.148438 162.199219 52.1875 158.796875 C 54.226562 155.390625 56.347656 152.042969 58.554688 148.742188 C 60.757812 145.445312 63.042969 142.203125 65.402344 139.015625 C 67.765625 135.828125 70.207031 132.703125 72.722656 129.636719 C 75.242188 126.570312 77.832031 123.566406 80.496094 120.628906 C 83.160156 117.6875 85.894531 114.816406 88.699219 112.011719 C 91.503906 109.207031 94.375 106.46875 97.316406 103.804688 C 100.253906 101.140625 103.257812 98.550781 106.324219 96.035156 C 109.390625 93.519531 112.519531 91.078125 115.703125 88.714844 C 118.890625 86.351562 122.132812 84.070312 125.433594 81.863281 C 128.730469 79.660156 132.082031 77.539062 135.484375 75.5 C 138.886719 73.460938 142.335938 71.503906 145.835938 69.636719 C 149.335938 67.765625 152.878906 65.980469 156.464844 64.285156 C 160.050781 62.589844 163.675781 60.980469 167.339844 59.464844 C 171.003906 57.945312 174.707031 56.519531 178.441406 55.183594 C 182.175781 53.847656 185.941406 52.601562 189.738281 51.449219 C 193.535156 50.296875 197.355469 49.242188 201.203125 48.277344 C 205.054688 47.3125 208.921875 46.445312 212.8125 45.671875 C 216.703125 44.894531 220.613281 44.21875 224.535156 43.636719 C 228.460938 43.054688 232.394531 42.570312 236.34375 42.179688 C 240.292969 41.789062 244.246094 41.5 248.210938 41.304688 C 252.171875 41.109375 256.136719 41.011719 260.105469 41.011719 C 264.070312 41.011719 268.035156 41.109375 271.996094 41.304688 C 275.960938 41.5 279.914062 41.789062 283.863281 42.179688 C 287.8125 42.570312 291.746094 43.054688 295.671875 43.636719 C 299.59375 44.21875 303.503906 44.894531 307.394531 45.671875 C 311.285156 46.445312 315.15625 47.3125 319.003906 48.277344 C 322.851562 49.242188 326.671875 50.296875 330.46875 51.449219 C 334.265625 52.601562 338.03125 53.847656 341.765625 55.183594 C 345.5 56.519531 349.203125 57.945312 352.867188 59.464844 C 356.53125 60.980469 360.15625 62.589844 363.742188 64.285156 C 367.332031 65.980469 370.871094 67.765625 374.371094 69.636719 C 377.871094 71.503906 381.320312 73.460938 384.722656 75.5 C 388.125 77.539062 391.476562 79.660156 394.773438 81.863281 C 398.074219 84.070312 401.316406 86.351562 404.503906 88.714844 C 407.6875 91.078125 410.816406 93.519531 413.882812 96.035156 C 416.949219 98.550781 419.953125 101.140625 422.890625 103.804688 C 425.832031 106.46875 428.703125 109.207031 431.507812 112.011719 C 434.3125 114.816406 437.046875 117.6875 439.710938 120.628906 C 442.375 123.566406 444.964844 126.570312 447.484375 129.636719 C 450 132.703125 452.441406 135.828125 454.804688 139.015625 C 457.167969 142.203125 459.449219 145.445312 461.652344 148.742188 C 463.859375 152.042969 465.980469 155.390625 468.019531 158.796875 C 470.058594 162.199219 472.011719 165.648438 473.882812 169.148438 C 475.753906 172.644531 477.535156 176.1875 479.234375 179.773438 C 480.929688 183.359375 482.535156 186.984375 484.054688 190.652344 C 485.574219 194.316406 487 198.015625 488.335938 201.75 C 489.671875 205.488281 490.917969 209.253906 492.066406 213.050781 C 493.21875 216.84375 494.277344 220.667969 495.242188 224.515625 C 496.207031 228.363281 497.074219 232.234375 497.847656 236.125 C 498.621094 240.015625 499.300781 243.921875 499.882812 247.847656 C 500.464844 251.769531 500.949219 255.707031 501.339844 259.65625 C 501.726562 263.601562 502.019531 267.558594 502.214844 271.519531 C 502.410156 275.484375 502.507812 279.449219 502.507812 283.414062 Z M 502.507812 283.414062 " fill-opacity="1" fill-rule="nonzero"/></g><path fill="#ffffff" d="M 301.746094 209.949219 C 301.746094 200.492188 297.199219 191.765625 289.5625 186.308594 C 282.105469 181.035156 272.832031 179.398438 264.105469 181.945312 C 263.921875 182.125 263.742188 182.125 263.558594 181.945312 C 263.375 181.761719 263.375 181.582031 263.375 181.398438 L 263.375 147.574219 C 263.375 143.210938 267.015625 139.574219 271.558594 139.574219 L 290.472656 139.574219 C 290.652344 139.574219 290.835938 139.753906 290.835938 139.753906 C 291.019531 139.9375 291.019531 140.117188 291.019531 140.300781 C 290.289062 148.664062 293.019531 156.847656 298.835938 163.03125 C 304.292969 168.851562 311.929688 172.304688 320.113281 172.304688 C 328.296875 172.304688 335.933594 168.851562 341.390625 163.03125 C 347.207031 156.847656 349.9375 148.664062 349.207031 140.300781 C 349.207031 140.117188 349.207031 139.9375 349.390625 139.753906 C 349.390625 139.753906 349.574219 139.574219 349.753906 139.574219 L 368.667969 139.574219 C 373.210938 139.574219 376.847656 143.210938 376.847656 147.757812 L 376.847656 187.035156 C 376.847656 189.582031 379.394531 191.035156 381.578125 189.945312 C 396.671875 181.582031 415.402344 192.671875 415.402344 209.949219 C 415.402344 227.222656 396.671875 238.316406 381.578125 229.953125 C 379.394531 228.859375 376.847656 230.496094 376.847656 232.859375 L 376.847656 272.140625 C 376.847656 276.6875 373.210938 280.324219 368.667969 280.324219 L 271.558594 280.324219 C 267.015625 280.324219 263.375 276.6875 263.375 272.140625 L 263.375 238.5 C 263.375 238.316406 263.375 238.136719 263.558594 237.953125 C 263.742188 237.953125 263.921875 237.769531 264.105469 237.953125 C 273.015625 240.5 282.472656 238.863281 289.925781 233.40625 C 297.382812 227.769531 301.746094 219.222656 301.746094 209.949219 Z M 258.648438 336.878906 C 260.832031 338.152344 263.375 336.515625 263.375 334.148438 L 263.375 294.871094 C 263.375 290.324219 267.015625 286.6875 271.558594 286.6875 L 290.472656 286.6875 C 290.652344 286.6875 290.835938 286.6875 290.835938 286.871094 C 291.019531 287.050781 291.019531 287.234375 291.019531 287.414062 C 290.289062 295.597656 293.019531 303.78125 298.65625 309.964844 C 304.292969 315.964844 311.929688 319.238281 320.113281 319.238281 C 328.296875 319.238281 335.933594 315.964844 341.570312 309.964844 C 347.207031 303.78125 349.9375 295.597656 349.207031 287.414062 C 349.207031 287.234375 349.207031 287.050781 349.390625 286.871094 C 349.390625 286.6875 349.574219 286.6875 349.753906 286.6875 L 368.667969 286.6875 C 373.210938 286.6875 376.847656 290.324219 376.847656 294.871094 L 376.847656 419.253906 C 376.847656 423.617188 373.210938 427.257812 368.667969 427.257812 L 271.558594 427.257812 C 267.015625 427.257812 263.375 423.617188 263.375 419.253906 L 263.375 379.792969 C 263.375 377.613281 260.832031 375.976562 258.832031 377.066406 C 249.011719 381.613281 238.101562 380.519531 230.644531 372.339844 C 227.007812 368.15625 224.824219 362.699219 224.824219 357.0625 C 224.824219 339.789062 243.554688 328.695312 258.648438 336.878906 Z M 143.359375 294.871094 C 143.359375 290.324219 147.175781 286.6875 151.539062 286.6875 L 248.828125 286.6875 C 253.375 286.6875 257.011719 290.324219 257.011719 294.871094 L 257.011719 328.511719 C 257.011719 328.695312 256.832031 328.875 256.832031 328.875 C 256.648438 329.058594 256.464844 329.058594 256.101562 329.058594 L 255.375 328.875 L 254.464844 328.511719 C 253.558594 328.332031 252.648438 328.148438 251.738281 328.148438 L 250.101562 327.96875 L 249.191406 327.785156 L 248.464844 327.785156 L 243.191406 328.148438 L 241.554688 328.511719 C 232.828125 330.332031 225.371094 336.152344 221.371094 344.332031 L 219.371094 349.972656 C 218.097656 355.425781 218.640625 357.789062 219.1875 363.246094 C 219.734375 368.699219 225.007812 375.792969 229.007812 379.429688 C 236.464844 385.613281 247.011719 387.796875 256.101562 384.886719 C 256.464844 384.886719 256.648438 384.886719 256.832031 385.066406 C 256.832031 385.066406 257.011719 385.25 257.011719 385.613281 L 257.011719 419.253906 C 257.011719 423.617188 253.375 427.257812 248.828125 427.257812 L 229.917969 427.257812 C 229.734375 427.257812 229.554688 427.257812 229.371094 427.074219 C 229.371094 427.074219 229.191406 426.890625 229.191406 426.710938 C 230.097656 418.34375 227.371094 410.164062 221.550781 403.980469 C 216.097656 397.976562 208.460938 394.707031 200.277344 394.707031 C 192.09375 394.707031 184.273438 397.976562 178.816406 403.980469 C 173.179688 410.164062 170.453125 418.34375 171.179688 426.710938 C 171.179688 426.890625 171.179688 427.074219 171 427.074219 C 170.816406 427.257812 170.816406 427.257812 170.453125 427.257812 L 151.539062 427.257812 C 147.175781 427.257812 143.359375 423.617188 143.359375 419.253906 L 143.359375 379.792969 C 143.359375 377.429688 140.8125 375.976562 138.8125 377.066406 C 123.71875 385.25 104.988281 374.15625 104.988281 357.0625 C 104.988281 339.789062 123.71875 328.695312 138.8125 336.878906 C 140.8125 338.152344 143.359375 336.515625 143.359375 334.148438 Z M 143.359375 147.757812 C 143.359375 143.210938 147.175781 139.574219 151.539062 139.574219 L 248.828125 139.574219 C 253.375 139.574219 257.011719 143.210938 257.011719 147.757812 L 257.011719 187.035156 C 257.011719 189.582031 259.558594 191.035156 261.742188 189.945312 C 276.832031 181.582031 295.382812 192.671875 295.382812 209.949219 C 295.382812 227.222656 276.832031 238.316406 261.742188 229.953125 C 259.558594 228.859375 257.011719 230.496094 257.011719 232.859375 L 257.011719 272.140625 C 257.011719 276.6875 253.375 280.324219 248.828125 280.324219 L 229.917969 280.324219 C 229.734375 280.324219 229.554688 280.324219 229.371094 280.140625 C 229.371094 279.960938 229.191406 279.777344 229.191406 279.597656 C 230.097656 271.230469 227.371094 263.230469 221.734375 257.046875 C 216.097656 251.046875 208.460938 247.589844 200.277344 247.589844 C 192.09375 247.589844 184.273438 251.046875 178.816406 257.046875 C 173.179688 263.230469 170.453125 271.230469 171.179688 279.597656 C 171.179688 279.777344 171.179688 279.960938 171 280.140625 C 170.816406 280.324219 170.816406 280.324219 170.453125 280.324219 L 151.539062 280.324219 C 147.175781 280.324219 143.359375 276.6875 143.359375 272.140625 Z M 143.359375 147.757812 " fill-opacity="1" fill-rule="evenodd"/><g transform="matrix(1, 0, 0, 1, 618, 24)"><g clip-path="url(#76362f594d)"><g fill="#6512d4" fill-opacity="1"><g transform="translate(0.724955, 234.017756)"><g><path d="M 127.9375 -163.421875 C 131.351562 -163.421875 134.734375 -162.175781 138.078125 -159.6875 C 141.429688 -157.195312 143.109375 -153.847656 143.109375 -149.640625 C 143.109375 -146.679688 142.019531 -143.722656 139.84375 -140.765625 L 50.421875 -25.90625 L 47.625 -26.84375 L 125.59375 -26.84375 C 129.644531 -26.84375 133.03125 -25.632812 135.75 -23.21875 C 138.476562 -20.8125 139.84375 -17.585938 139.84375 -13.546875 C 139.84375 -9.648438 138.476562 -6.414062 135.75 -3.84375 C 133.03125 -1.28125 129.644531 0 125.59375 0 L 23.109375 0 C 19.066406 0 15.566406 -1.4375 12.609375 -4.3125 C 9.648438 -7.195312 8.171875 -10.351562 8.171875 -13.78125 C 8.171875 -16.726562 9.257812 -19.679688 11.4375 -22.640625 L 101.078125 -137.96875 L 103.1875 -136.5625 L 32.453125 -136.5625 C 28.398438 -136.5625 25.007812 -137.804688 22.28125 -140.296875 C 19.5625 -142.796875 18.203125 -146.066406 18.203125 -150.109375 C 18.203125 -154.160156 19.5625 -157.390625 22.28125 -159.796875 C 25.007812 -162.210938 28.398438 -163.421875 32.453125 -163.421875 Z M 127.9375 -163.421875 "/></g></g></g><g fill="#6512d4" fill-opacity="1"><g transform="translate(147.102272, 234.017756)"><g><path d="M 167.859375 -81.703125 C 167.859375 -70.035156 165.910156 -59.140625 162.015625 -49.015625 C 158.128906 -38.898438 152.644531 -29.988281 145.5625 -22.28125 C 138.476562 -14.582031 130.070312 -8.554688 120.34375 -4.203125 C 110.613281 0.148438 99.992188 2.328125 88.484375 2.328125 C 76.960938 2.328125 66.375 0.148438 56.71875 -4.203125 C 47.070312 -8.554688 38.707031 -14.582031 31.625 -22.28125 C 24.550781 -29.988281 19.066406 -38.898438 15.171875 -49.015625 C 11.285156 -59.140625 9.34375 -70.035156 9.34375 -81.703125 C 9.34375 -93.378906 11.285156 -104.273438 15.171875 -114.390625 C 19.066406 -124.503906 24.550781 -133.410156 31.625 -141.109375 C 38.707031 -148.816406 47.070312 -154.847656 56.71875 -159.203125 C 66.375 -163.566406 76.960938 -165.75 88.484375 -165.75 C 99.992188 -165.75 110.613281 -163.566406 120.34375 -159.203125 C 130.070312 -154.847656 138.476562 -148.816406 145.5625 -141.109375 C 152.644531 -133.410156 158.128906 -124.503906 162.015625 -114.390625 C 165.910156 -104.273438 167.859375 -93.378906 167.859375 -81.703125 Z M 137.5 -81.703125 C 137.5 -92.128906 135.394531 -101.582031 131.1875 -110.0625 C 126.988281 -118.550781 121.234375 -125.285156 113.921875 -130.265625 C 106.609375 -135.242188 98.128906 -137.734375 88.484375 -137.734375 C 78.828125 -137.734375 70.34375 -135.242188 63.03125 -130.265625 C 55.71875 -125.285156 50 -118.59375 45.875 -110.1875 C 41.75 -101.78125 39.6875 -92.285156 39.6875 -81.703125 C 39.6875 -71.273438 41.75 -61.820312 45.875 -53.34375 C 50 -44.863281 55.71875 -38.132812 63.03125 -33.15625 C 70.34375 -28.175781 78.828125 -25.6875 88.484375 -25.6875 C 98.128906 -25.6875 106.609375 -28.175781 113.921875 -33.15625 C 121.234375 -38.132812 126.988281 -44.863281 131.1875 -53.34375 C 135.394531 -61.820312 137.5 -71.273438 137.5 -81.703125 Z M 137.5 -81.703125 "/></g></g></g><g fill="#6512d4" fill-opacity="1"><g transform="translate(320.560562, 234.017756)"><g><path d="M 141.46875 -163.421875 C 145.207031 -163.421875 148.242188 -162.175781 150.578125 -159.6875 C 152.910156 -157.195312 154.078125 -154.082031 154.078125 -150.34375 L 154.078125 -14.234375 C 154.078125 -10.191406 152.710938 -6.804688 149.984375 -4.078125 C 147.265625 -1.359375 143.882812 0 139.84375 0 C 137.8125 0 135.742188 -0.347656 133.640625 -1.046875 C 131.546875 -1.742188 129.953125 -2.71875 128.859375 -3.96875 L 37.125 -120.46875 L 43.1875 -124.203125 L 43.1875 -13.078125 C 43.1875 -9.335938 41.976562 -6.222656 39.5625 -3.734375 C 37.15625 -1.242188 34.003906 0 30.109375 0 C 26.378906 0 23.347656 -1.242188 21.015625 -3.734375 C 18.679688 -6.222656 17.515625 -9.335938 17.515625 -13.078125 L 17.515625 -149.171875 C 17.515625 -153.222656 18.875 -156.609375 21.59375 -159.328125 C 24.320312 -162.054688 27.707031 -163.421875 31.75 -163.421875 C 33.925781 -163.421875 36.179688 -162.988281 38.515625 -162.125 C 40.847656 -161.269531 42.5625 -159.988281 43.65625 -158.28125 L 132.59375 -44.828125 L 128.625 -42.015625 L 128.625 -150.34375 C 128.625 -154.082031 129.789062 -157.195312 132.125 -159.6875 C 134.46875 -162.175781 137.582031 -163.421875 141.46875 -163.421875 Z M 141.46875 -163.421875 "/></g></g></g><g fill="#6512d4" fill-opacity="1"><g transform="translate(488.415936, 234.017756)"><g><path d="M 77.5 -126.765625 L 27.078125 -8.171875 C 25.992188 -5.210938 24.320312 -2.914062 22.0625 -1.28125 C 19.800781 0.351562 17.347656 1.171875 14.703125 1.171875 C 10.503906 1.171875 7.390625 0.00390625 5.359375 -2.328125 C 3.335938 -4.671875 2.328125 -7.550781 2.328125 -10.96875 C 2.328125 -12.375 2.5625 -13.851562 3.03125 -15.40625 L 61.171875 -155.015625 C 62.410156 -158.128906 64.3125 -160.539062 66.875 -162.25 C 69.445312 -163.957031 72.210938 -164.65625 75.171875 -164.34375 C 77.972656 -164.34375 80.578125 -163.523438 82.984375 -161.890625 C 85.398438 -160.265625 87.15625 -157.972656 88.25 -155.015625 L 145.671875 -18.203125 C 146.453125 -16.179688 146.84375 -14.316406 146.84375 -12.609375 C 146.84375 -8.398438 145.476562 -5.050781 142.75 -2.5625 C 140.03125 -0.0703125 137.035156 1.171875 133.765625 1.171875 C 130.960938 1.171875 128.429688 0.316406 126.171875 -1.390625 C 123.921875 -3.109375 122.171875 -5.445312 120.921875 -8.40625 L 70.734375 -125.359375 Z M 34.3125 -36.65625 L 47.15625 -63.5 L 110.1875 -63.5 L 114.625 -36.65625 Z M 34.3125 -36.65625 "/></g></g></g></g></g><g transform="matrix(1, 0, 0, 1, 618, 239)"><g clip-path="url(#7625ee8ed6)"><g fill="#6512d4" fill-opacity="1"><g transform="translate(0.724955, 234.365406)"><g><path d="M 131.90625 -155.484375 C 135.945312 -153.453125 138.316406 -150.257812 139.015625 -145.90625 C 139.722656 -141.550781 138.597656 -137.582031 135.640625 -134 C 133.609375 -131.195312 131 -129.640625 127.8125 -129.328125 C 124.625 -129.015625 121.394531 -129.640625 118.125 -131.203125 C 114.394531 -132.910156 110.46875 -134.226562 106.34375 -135.15625 C 102.21875 -136.09375 97.894531 -136.5625 93.375 -136.5625 C 84.976562 -136.5625 77.472656 -135.238281 70.859375 -132.59375 C 64.242188 -129.945312 58.597656 -126.171875 53.921875 -121.265625 C 49.253906 -116.367188 45.710938 -110.570312 43.296875 -103.875 C 40.890625 -97.1875 39.6875 -89.796875 39.6875 -81.703125 C 39.6875 -72.210938 41.046875 -63.960938 43.765625 -56.953125 C 46.492188 -49.953125 50.269531 -44.117188 55.09375 -39.453125 C 59.914062 -34.785156 65.59375 -31.320312 72.125 -29.0625 C 78.664062 -26.8125 85.75 -25.6875 93.375 -25.6875 C 97.582031 -25.6875 101.785156 -26.070312 105.984375 -26.84375 C 110.191406 -27.625 114.238281 -29.023438 118.125 -31.046875 C 121.394531 -32.609375 124.625 -33.15625 127.8125 -32.6875 C 131 -32.21875 133.6875 -30.582031 135.875 -27.78125 C 138.976562 -23.882812 140.101562 -19.875 139.25 -15.75 C 138.394531 -11.632812 136.023438 -8.640625 132.140625 -6.765625 C 128.085938 -4.742188 123.921875 -3.070312 119.640625 -1.75 C 115.359375 -0.425781 111.039062 0.582031 106.6875 1.28125 C 102.332031 1.976562 97.894531 2.328125 93.375 2.328125 C 82.175781 2.328125 71.554688 0.539062 61.515625 -3.03125 C 51.472656 -6.613281 42.519531 -11.90625 34.65625 -18.90625 C 26.800781 -25.914062 20.617188 -34.671875 16.109375 -45.171875 C 11.597656 -55.679688 9.34375 -67.859375 9.34375 -81.703125 C 9.34375 -93.691406 11.40625 -104.742188 15.53125 -114.859375 C 19.65625 -124.972656 25.488281 -133.726562 33.03125 -141.125 C 40.582031 -148.519531 49.492188 -154.273438 59.765625 -158.390625 C 70.035156 -162.515625 81.238281 -164.578125 93.375 -164.578125 C 100.226562 -164.578125 106.921875 -163.800781 113.453125 -162.25 C 119.992188 -160.695312 126.144531 -158.441406 131.90625 -155.484375 Z M 131.90625 -155.484375 "/></g></g></g><g fill="#6512d4" fill-opacity="1"><g transform="translate(143.366985, 234.365406)"><g><path d="M 31.75 -163.421875 L 109.953125 -163.421875 C 114.003906 -163.421875 117.390625 -162.132812 120.109375 -159.5625 C 122.835938 -157 124.203125 -153.691406 124.203125 -149.640625 C 124.203125 -145.753906 122.835938 -142.601562 120.109375 -140.1875 C 117.390625 -137.769531 114.003906 -136.5625 109.953125 -136.5625 L 44.59375 -136.5625 L 46.6875 -140.53125 L 46.6875 -95.015625 L 44.828125 -96.890625 L 99.453125 -96.890625 C 103.492188 -96.890625 106.875 -95.601562 109.59375 -93.03125 C 112.320312 -90.457031 113.6875 -87.148438 113.6875 -83.109375 C 113.6875 -79.210938 112.320312 -76.054688 109.59375 -73.640625 C 106.875 -71.234375 103.492188 -70.03125 99.453125 -70.03125 L 45.515625 -70.03125 L 46.6875 -71.90625 L 46.6875 -24.75 L 44.828125 -26.84375 L 109.953125 -26.84375 C 114.003906 -26.84375 117.390625 -25.476562 120.109375 -22.75 C 122.835938 -20.03125 124.203125 -16.882812 124.203125 -13.3125 C 124.203125 -9.414062 122.835938 -6.222656 120.109375 -3.734375 C 117.390625 -1.242188 114.003906 0 109.953125 0 L 31.75 0 C 27.707031 0 24.320312 -1.359375 21.59375 -4.078125 C 18.875 -6.804688 17.515625 -10.191406 17.515625 -14.234375 L 17.515625 -149.171875 C 17.515625 -153.222656 18.875 -156.609375 21.59375 -159.328125 C 24.320312 -162.054688 27.707031 -163.421875 31.75 -163.421875 Z M 31.75 -163.421875 "/></g></g></g><g fill="#6512d4" fill-opacity="1"><g transform="translate(273.168907, 234.365406)"><g><path d="M 34.3125 0 C 29.957031 0 26.066406 -1.359375 22.640625 -4.078125 C 19.222656 -6.804688 17.515625 -10.191406 17.515625 -14.234375 L 17.515625 -149.171875 C 17.515625 -153.222656 18.875 -156.609375 21.59375 -159.328125 C 24.320312 -162.054688 27.707031 -163.421875 31.75 -163.421875 L 98.984375 -163.421875 C 107.078125 -163.421875 114.664062 -161.28125 121.75 -157 C 128.832031 -152.71875 134.550781 -146.800781 138.90625 -139.25 C 143.257812 -131.707031 145.4375 -123.03125 145.4375 -113.21875 C 145.4375 -107.3125 144.226562 -101.554688 141.8125 -95.953125 C 139.40625 -90.347656 136.140625 -85.285156 132.015625 -80.765625 C 127.890625 -76.253906 123.257812 -72.753906 118.125 -70.265625 L 118.359375 -75.640625 C 122.710938 -73.304688 126.328125 -70.539062 129.203125 -67.34375 C 132.085938 -64.15625 134.347656 -60.734375 135.984375 -57.078125 C 137.617188 -53.421875 138.59375 -49.492188 138.90625 -45.296875 C 139.53125 -41.398438 139.957031 -37.972656 140.1875 -35.015625 C 140.414062 -32.054688 140.878906 -29.566406 141.578125 -27.546875 C 142.285156 -25.523438 143.648438 -23.96875 145.671875 -22.875 C 149.097656 -20.851562 151.238281 -17.9375 152.09375 -14.125 C 152.945312 -10.3125 152.050781 -6.925781 149.40625 -3.96875 C 147.695312 -1.945312 145.519531 -0.660156 142.875 -0.109375 C 140.226562 0.429688 137.582031 0.429688 134.9375 -0.109375 C 132.289062 -0.660156 130.113281 -1.398438 128.40625 -2.328125 C 125.757812 -3.890625 123.113281 -6.1875 120.46875 -9.21875 C 117.820312 -12.257812 115.679688 -16.347656 114.046875 -21.484375 C 112.410156 -26.617188 111.59375 -33.234375 111.59375 -41.328125 C 111.59375 -43.972656 111.125 -46.421875 110.1875 -48.671875 C 109.257812 -50.929688 107.9375 -52.878906 106.21875 -54.515625 C 104.507812 -56.148438 102.332031 -57.394531 99.6875 -58.25 C 97.039062 -59.101562 93.925781 -59.53125 90.34375 -59.53125 L 43.1875 -59.53125 L 46.6875 -64.90625 L 46.6875 -14.234375 C 46.6875 -10.191406 45.597656 -6.804688 43.421875 -4.078125 C 41.242188 -1.359375 38.207031 0 34.3125 0 Z M 43.421875 -83.578125 L 97.8125 -83.578125 C 100.613281 -83.578125 103.335938 -84.859375 105.984375 -87.421875 C 108.628906 -89.992188 110.804688 -93.5 112.515625 -97.9375 C 114.234375 -102.375 115.09375 -107.238281 115.09375 -112.53125 C 115.09375 -119.375 113.265625 -125.085938 109.609375 -129.671875 C 105.953125 -134.265625 102.019531 -136.5625 97.8125 -136.5625 L 43.890625 -136.5625 L 46.6875 -144.046875 L 46.6875 -77.96875 Z M 43.421875 -83.578125 "/></g></g></g><g fill="#6512d4" fill-opacity="1"><g transform="translate(429.818331, 234.365406)"><g><path d="M 87.546875 -163.421875 C 98.753906 -163.421875 108.710938 -161.316406 117.421875 -157.109375 C 126.140625 -152.910156 133.492188 -147.035156 139.484375 -139.484375 C 145.472656 -131.941406 149.984375 -123.226562 153.015625 -113.34375 C 156.054688 -103.457031 157.578125 -92.910156 157.578125 -81.703125 C 157.578125 -66.609375 154.851562 -52.875 149.40625 -40.5 C 143.957031 -28.125 136.054688 -18.28125 125.703125 -10.96875 C 115.359375 -3.65625 102.640625 0 87.546875 0 L 31.75 0 C 27.707031 0 24.320312 -1.359375 21.59375 -4.078125 C 18.875 -6.804688 17.515625 -10.191406 17.515625 -14.234375 L 17.515625 -149.171875 C 17.515625 -153.222656 18.875 -156.609375 21.59375 -159.328125 C 24.320312 -162.054688 27.707031 -163.421875 31.75 -163.421875 Z M 85.203125 -26.84375 C 95.015625 -26.84375 103.03125 -29.367188 109.25 -34.421875 C 115.476562 -39.484375 120.03125 -46.175781 122.90625 -54.5 C 125.789062 -62.832031 127.234375 -71.898438 127.234375 -81.703125 C 127.234375 -89.023438 126.414062 -95.992188 124.78125 -102.609375 C 123.144531 -109.222656 120.613281 -115.054688 117.1875 -120.109375 C 113.769531 -125.171875 109.414062 -129.175781 104.125 -132.125 C 98.832031 -135.082031 92.523438 -136.5625 85.203125 -136.5625 L 44.359375 -136.5625 L 46.6875 -138.671875 L 46.6875 -24.28125 L 45.296875 -26.84375 Z M 85.203125 -26.84375 "/></g></g></g><g fill="#6512d4" fill-opacity="1"><g transform="translate(591.837284, 234.365406)"><g><path d="M 77.5 -126.765625 L 27.078125 -8.171875 C 25.992188 -5.210938 24.320312 -2.914062 22.0625 -1.28125 C 19.800781 0.351562 17.347656 1.171875 14.703125 1.171875 C 10.503906 1.171875 7.390625 0.00390625 5.359375 -2.328125 C 3.335938 -4.671875 2.328125 -7.550781 2.328125 -10.96875 C 2.328125 -12.375 2.5625 -13.851562 3.03125 -15.40625 L 61.171875 -155.015625 C 62.410156 -158.128906 64.3125 -160.539062 66.875 -162.25 C 69.445312 -163.957031 72.210938 -164.65625 75.171875 -164.34375 C 77.972656 -164.34375 80.578125 -163.523438 82.984375 -161.890625 C 85.398438 -160.265625 87.15625 -157.972656 88.25 -155.015625 L 145.671875 -18.203125 C 146.453125 -16.179688 146.84375 -14.316406 146.84375 -12.609375 C 146.84375 -8.398438 145.476562 -5.050781 142.75 -2.5625 C 140.03125 -0.0703125 137.035156 1.171875 133.765625 1.171875 C 130.960938 1.171875 128.429688 0.316406 126.171875 -1.390625 C 123.921875 -3.109375 122.171875 -5.445312 120.921875 -8.40625 L 70.734375 -125.359375 Z M 34.3125 -36.65625 L 47.15625 -63.5 L 110.1875 -63.5 L 114.625 -36.65625 Z M 34.3125 -36.65625 "/></g></g></g><g fill="#6512d4" fill-opacity="1"><g transform="translate(737.280834, 234.365406)"><g><path d="M 70.03125 2.328125 C 59.132812 2.328125 49.328125 0.96875 40.609375 -1.75 C 31.898438 -4.476562 23.578125 -9.265625 15.640625 -16.109375 C 13.617188 -17.816406 12.0625 -19.757812 10.96875 -21.9375 C 9.882812 -24.125 9.34375 -26.304688 9.34375 -28.484375 C 9.34375 -32.054688 10.625 -35.203125 13.1875 -37.921875 C 15.757812 -40.648438 18.988281 -42.015625 22.875 -42.015625 C 25.832031 -42.015625 28.476562 -41.082031 30.8125 -39.21875 C 36.726562 -34.394531 42.601562 -30.738281 48.4375 -28.25 C 54.28125 -25.757812 61.476562 -24.515625 70.03125 -24.515625 C 75.789062 -24.515625 81.082031 -25.40625 85.90625 -27.1875 C 90.726562 -28.976562 94.617188 -31.390625 97.578125 -34.421875 C 100.535156 -37.460938 102.015625 -40.929688 102.015625 -44.828125 C 102.015625 -49.492188 100.613281 -53.457031 97.8125 -56.71875 C 95.007812 -59.988281 90.726562 -62.753906 84.96875 -65.015625 C 79.21875 -67.273438 71.90625 -69.023438 63.03125 -70.265625 C 54.625 -71.515625 47.226562 -73.421875 40.84375 -75.984375 C 34.46875 -78.554688 29.140625 -81.828125 24.859375 -85.796875 C 20.578125 -89.765625 17.347656 -94.429688 15.171875 -99.796875 C 12.992188 -105.171875 11.90625 -111.203125 11.90625 -117.890625 C 11.90625 -128.003906 14.507812 -136.640625 19.71875 -143.796875 C 24.9375 -150.960938 31.976562 -156.410156 40.84375 -160.140625 C 49.71875 -163.878906 59.523438 -165.75 70.265625 -165.75 C 80.378906 -165.75 89.753906 -164.226562 98.390625 -161.1875 C 107.035156 -158.15625 114.082031 -154.304688 119.53125 -149.640625 C 124.039062 -146.066406 126.296875 -141.941406 126.296875 -137.265625 C 126.296875 -133.847656 124.972656 -130.738281 122.328125 -127.9375 C 119.679688 -125.132812 116.566406 -123.734375 112.984375 -123.734375 C 110.648438 -123.734375 108.550781 -124.429688 106.6875 -125.828125 C 104.195312 -128.003906 100.847656 -130.066406 96.640625 -132.015625 C 92.441406 -133.960938 88.007812 -135.597656 83.34375 -136.921875 C 78.675781 -138.242188 74.316406 -138.90625 70.265625 -138.90625 C 63.578125 -138.90625 57.9375 -138.046875 53.34375 -136.328125 C 48.75 -134.617188 45.285156 -132.285156 42.953125 -129.328125 C 40.617188 -126.367188 39.453125 -122.945312 39.453125 -119.0625 C 39.453125 -114.394531 40.8125 -110.539062 43.53125 -107.5 C 46.257812 -104.46875 50.191406 -102.054688 55.328125 -100.265625 C 60.460938 -98.472656 66.609375 -96.878906 73.765625 -95.484375 C 83.109375 -93.773438 91.316406 -91.75 98.390625 -89.40625 C 105.472656 -87.070312 111.347656 -84.078125 116.015625 -80.421875 C 120.691406 -76.765625 124.195312 -72.171875 126.53125 -66.640625 C 128.863281 -61.117188 130.03125 -54.390625 130.03125 -46.453125 C 130.03125 -36.335938 127.226562 -27.625 121.625 -20.3125 C 116.019531 -13 108.664062 -7.394531 99.5625 -3.5 C 90.457031 0.382812 80.613281 2.328125 70.03125 2.328125 Z M 70.03125 2.328125 "/></g></g></g></g></g></svg>